<svg width="180" height="180" viewBox="0 0 180 180" fill="none" xmlns="http://www.w3.org/2000/svg">
<g clip-path="url(#clip0)">
<rect width="180" height="180" fill="#1E222C"/>
<path d="M126.595 100.4V111H101.195L100.395 104C96.1279 107.2 91.8612 109.533 87.5945 111C83.3279 112.467 78.5279 113.2 73.1945 113.2C65.1945 113.2 58.6612 111 53.5945 106.6C48.6612 102.067 46.1945 96.4667 46.1945 89.8C46.1945 81.2667 49.0612 75.0667 54.7945 71.2C60.6612 67.2 68.3279 65.2 77.7945 65.2C84.5945 65.2 91.8612 66.0667 99.5945 67.8V59.6C99.5945 53.6 97.9279 49.0667 94.5945 46C91.3945 42.9333 86.8612 41.4 80.9945 41.4C77.1279 41.4 72.6612 42.0667 67.5945 43.4C62.6612 44.6 58.1279 46.3333 53.9945 48.6L49.5945 39C53.9945 36.2 59.0612 34.0667 64.7945 32.6C70.6612 31.1333 76.1279 30.4 81.1945 30.4C91.4612 30.4 99.5279 32.9333 105.395 38C111.261 42.9333 114.195 49.6667 114.195 58.2V100.4H126.595ZM60.1945 89C60.1945 93.1333 61.5279 96.5333 64.1945 99.2C66.9945 101.733 70.7279 103 75.3945 103C83.2612 103 91.3279 100.133 99.5945 94.4V76.4C92.5279 74.8 85.5945 74 78.7945 74C73.4612 74 68.9945 75.2 65.3945 77.6C61.9279 79.8667 60.1945 83.6667 60.1945 89Z" fill="#5DAC60"/>
<path d="M217.559 70.2793C175.132 112.706 64.8234 172.103 -37 70.2793L90.2793 197.559L217.559 70.2793Z" fill="#F8B941"/>
</g>
<defs>
<clipPath id="clip0">
<rect width="180" height="180" fill="white"/>
</clipPath>
</defs>
</svg>
